<svg xmlns:svg="http://www.w3.org/2000/svg" xmlns="http://www.w3.org/2000/svg" height="48" width="48" version="1.1" viewBox="-1 -32 48 48">
  <path d="M 25.593441,-0.78637113 27.233773,-3.2678099 36.194232,-0.83873638 35.159711,4.597448 C 33.853133,8.007465 30.054276,8.3276782 27.567973,7.0832128 24.221857,5.3064343 24.263992,1.9052899 25.593441,-0.78637113 Z M 28.515692,-21.31039 c 2.056999,-4.305108 6.359693,-9.019782 9.627867,-7.342144 4.439442,2.278874 4.476115,10.490559 3.765552,14.801857 -1.43224,4.356273 -3.072197,5.6920352 -5.158757,9.7579276 l -8.9767,-2.4186698 C 27.637381,-11.602882 26.708859,-17.526902 28.515692,-21.31039 Z M 20.406559,4.463629 18.766227,1.9821902 9.805768,4.4112638 10.840289,9.8474483 c 1.306578,3.4100167 5.105435,3.7302297 7.591738,2.4857647 3.346116,-1.776778 3.303981,-5.1779229 1.974532,-7.869584 z M 17.484308,-16.06039 c -2.056999,-4.305108 -6.359693,-9.019782 -9.6278668,-7.342144 -4.4394421,2.278874 -4.4761151,10.490559 -3.7655521,14.8018567 1.4322403,4.3562729 3.0721968,5.6920356 5.1587569,9.757928 l 8.9767,-2.4186698 C 18.362619,-6.3528832 19.291141,-12.276902 17.484308,-16.06039 Z"
     style="fill:#ffffff;" />
</svg>
