<svg width="48" height="48" xmlns="http://www.w3.org/2000/svg" version="1.1">
  <path d="m27.4004 19.9941l-3.7402 12.7852c-0.162319 0.574332-0.242187 0.99362-0.242187 1.25781 0 0.20676 0.03993 0.367556 0.121093 0.482422 0.08116 0.10338 0.196932 0.154297 0.347657 0.154297 0.336232 0 0.76537-0.246309 1.28711-0.740234 0.869565-0.815551 1.72186-1.96963 2.55664-3.46289l1.26953 0.722656C26.8319 35.0644 24.4487 37 21.8516 37 20.9704 37 20.2758 36.7415 19.7656 36.2246 19.2555 35.7077 19 35.0014 19 34.1055c0-0.620279 0.08182-1.20645 0.244141-1.75781l2.58984-8.92578c0.05797-0.160813 0.08789-0.325747 0.08789-0.498047 0-0.321626-0.133724-0.575979-0.400391-0.759766 -0.266666-0.195272-0.723771-0.291015-1.37305-0.291015h-1.11328l0.486328-1.55078ZM25.8008 11c0.788406 0 1.46106 0.274813 2.01758 0.826172 0.556522 0.551358 0.833985 1.21891 0.833985 2 0 0.781091-0.277463 1.44669-0.833985 1.99805 -0.556521 0.551358-1.22917 0.828125-2.01758 0.828125 -0.788406 0-1.46106-0.276767-2.01758-0.828125 -0.556522-0.551359-0.835937-1.21696-0.835937-1.99805 0-0.781091 0.279415-1.44864 0.835937-2C24.3397 11.2748 25.0124 11 25.8008 11ZM45 24A21 21 0 0 1 24 45 21 21 0 0 1 3 24 21 21 0 0 1 24 3 21 21 0 0 1 45 24Zm-3 0A18 18 0 0 1 24 42 18 18 0 0 1 6 24 18 18 0 0 1 24 6 18 18 0 0 1 42 24Z" style="fill-rule:evenodd;fill:#fff"/>
</svg>