<svg xmlns:svg="http://www.w3.org/2000/svg" xmlns="http://www.w3.org/2000/svg" height="48" width="48" version="1.1"  viewBox="-1 -32 48 48">
  <path d="m 23,-26 c -1.148437,0 -2.105469,0.653749 -2.871094,1.960938 L 2.65625,5.136719 C 1.890625,6.496196 1.7949219,7.646714 2.3691406,8.587891 2.9433594,9.529067 4.0234375,10 5.609375,10 h 34.78125 C 41.976562,10 43.05664,9.529067 43.630859,8.587891 44.205078,7.646714 44.109375,6.496196 43.34375,5.136719 L 25.871094,-24.039062 C 25.105469,-25.346251 24.148437,-26 23,-26 Z m 0,8.001953 c 1.571187,0.04873 3.133349,0.886974 2.990234,2.652344 L 25.050781,-3.748047 C 24.970466,-2.757327 24.293443,-1.930866 23,-2.003906 21.951469,-2.063116 21.044686,-2.546424 20.947266,-3.748047 L 20.007812,-15.345703 C 19.888565,-16.816671 21.103846,-18.056857 23,-17.998047 Z M 23,1 c 1.656854,0 3,1.3431458 3,3 0,1.6568542 -1.343146,3 -3,3 -1.656854,0 -3,-1.3431458 -3,-3 0,-1.6568542 1.343146,-3 3,-3 z"
     style="fill:#ffffff;" />
</svg>
