<svg xmlns:svg="http://www.w3.org/2000/svg" xmlns="http://www.w3.org/2000/svg" width="480" height="240" viewBox="0 0 127 63.5" version="1.1">
<style>
    .s1{fill:none;opacity:0.5;}
    .s2{fill-rule:evenodd;fill:#6c6c6c;}
    .s3{fill:#007cc0;}
    .s6{fill:#009de0;}
    .s7{fill-rule:evenodd;}
    .red{fill:#d32030;}
    .lightgreen{fill:#9dc62d;}
    .blue{fill:#009de0;fill-rule:evenodd;}
    .white{fill:#fff;}
</style>
<g transform="translate(0,-233.49999)"><g transform="matrix(0.26458334,0,0,0.26458334,0.26458334,241.96647)"><path d="M9.2-26 5-21.8 18.8-8 5 5.8 9.2 10 23-3.8 36.8 10 41 5.8 27.2-8 41-21.8 36.8-26 23-12.2Z" class="s2"/></g><path d="m24.09 239.85h-1.19c0 1.82-1.29 3.37-3.1 3.73-1.81 0.36-3.61-0.6-4.31-2.28-0.7-1.68-0.11-3.6 1.42-4.61 1.39-0.92 3.19-0.84 4.49 0.15l-1.64 1.62h4.22v-4.17l-1.72 1.7c-1.7-1.39-4.14-1.53-6-0.3-2 1.32-2.78 3.87-1.86 6.07 0.92 2.2 3.29 3.45 5.64 2.99 2.35-0.46 4.06-2.52 4.06-4.9z" class="s3"/><g transform="matrix(0.26458334,0,0,0.26458334,25.664584,241.96647)" class="s2"><path xmlns="http://www.w3.org/2000/svg" d="M25.6-0.8 27.2-3.3 36.2-0.8 35.2 4.6C33.9 8 30.1 8.3 27.6 7.1 24.2 5.3 24.3 1.9 25.6-0.8ZM28.5-21.3c2.1-4.3 6.4-9 9.6-7.3 4.4 2.3 4.5 10.5 3.8 14.8-1.4 4.4-3.1 5.7-5.2 9.8l-9-2.4C27.6-11.6 26.7-17.5 28.5-21.3ZM20.4 4.5 18.8 2 9.8 4.4 10.8 9.8c1.3 3.4 5.1 3.7 7.6 2.5 3.3-1.8 3.3-5.2 2-7.9zM17.5-16.1c-2.1-4.3-6.4-9-9.6-7.3-4.4 2.3-4.5 10.5-3.8 14.8 1.4 4.4 3.1 5.7 5.2 9.8l9-2.4C18.4-6.4 19.3-12.3 17.5-16.1Z" class="s2"/></g><path d="m44.45 234.69v1.41c-1.5 0-2.85 0.91-3.42 2.32-0.19 0.47-0.28 0.95-0.28 1.44 0 0.48 0.09 0.97 0.28 1.44 0.57 1.4 1.92 2.32 3.42 2.32 1.5 0 2.85-0.91 3.42-2.32 0.51-1.25 0.31-2.66-0.48-3.71l-1.55 1.57v-4.22h4.17l-1.63 1.65c1.19 1.46 1.5 3.48 0.78 5.25-0.79 1.93-2.65 3.19-4.71 3.19-2.06 0-3.92-1.26-4.71-3.19-0.26-0.64-0.38-1.31-0.38-1.97 0-0.67 0.12-1.34 0.38-1.97 0.79-1.93 2.65-3.19 4.71-3.19z" class="s2"/><g transform="matrix(0.26458334,0,0,0.26458334,51.064585,241.96647)" class="s3"><path d="m19.5-29h7l0.1 17.2h-7.2zm-7 3C4.3-21.3 0.3-11.6 2.7-2.5 5.2 6.6 13.5 13 23 13 32.5 13 40.8 6.6 43.3-2.5 45.7-11.6 41.7-21.3 33.5-26l-2.1 3.6c6.6 3.8 9.8 11.5 7.8 18.8C37.2 3.7 30.6 8.8 23 8.8 15.4 8.8 8.8 3.7 6.8-3.6 4.8-10.9 8-18.6 14.6-22.4Z" class="s3"/></g><g transform="matrix(0.26458325,0,0,0.26458325,63.764585,241.96647)"><circle xmlns="http://www.w3.org/2000/svg" r="9" cy="-8" cx="23" class="red"/><path xmlns="http://www.w3.org/2000/svg" d="m8-26c-3.3 0-6 2.7-6 6V4c0 3.3 2.7 6 6 6h30c3.3 0 6-2.7 6-6v-24c0-3.3-2.7-6-6-6zm0 3h30c1.7 0 3 1.3 3 3V4c0 1.7-1.3 3-3 3H8C6.3 7 5 5.7 5 4v-24c0-1.7 1.3-3 3-3z" class="s2"/></g><g transform="translate(76.199998,-50.800153)" stroke-width="0.5"><g transform="matrix(0.02174658,0,0,-0.02273763,0.77200342,295.14789)" class="s2"><path d="M256.5 186.2 1 349.1V384H512V349.1ZM512 302.5V0H1V302.5L256.5 139.6Z" class="s2"/></g></g><g transform="matrix(0.26458325,0,0,0.26458325,89.164581,241.96647)"><path d="m41-24v3H5v-3h9L17-27h12l3.1 3zM8-18V5c0 3.3 2.7 6 6 6h2 14 2c3.3 0 6-2.7 6-6v-23zm5 3h3V5h-3zm8.5 0h3V5h-3zm8.5 0h3V5h-3z" class="s2"/></g><path xmlns="http://www.w3.org/2000/svg" d="m118 244 0.6 0.6 0.3-0.3 4.4-4.5-4.4-4.5-0.3-0.3-0.6 0.6 0.3 0.3 3.8 3.9-3.8 3.9z" class="lightgreen"/><g transform="translate(-12.700001,190.49988)"><path d="m15.9 70.8c-0.9 0-1.6 0.7-1.6 1.6v3.2c0 0.9 0.7 1.6 1.6 1.6h1.6l1.6 2.4 1.6-2.4h1.6c0.9 0 1.6-0.7 1.6-1.6v-3.2c0-0.9-0.7-1.6-1.6-1.6zm0.8 2.4a0.8 0.8 0 0 1 0.8 0.8 0.8 0.8 0 0 1-0.8 0.8 0.8 0.8 0 0 1-0.8-0.8 0.8 0.8 0 0 1 0.8-0.8zm2.4 0a0.8 0.8 0 0 1 0.8 0.8 0.8 0.8 0 0 1-0.8 0.8 0.8 0.8 0 0 1-0.8-0.8 0.8 0.8 0 0 1 0.8-0.8zm2.4 0a0.8 0.8 0 0 1 0.8 0.8 0.8 0.8 0 0 1-0.8 0.8 0.8 0.8 0 0 1-0.8-0.8 0.8 0.8 0 0 1 0.8-0.8z" class="s3"/></g><g transform="matrix(0,-0.26458334,-0.26458334,0,16.929198,258.63521)"><path d="M7.2-18 5-15.8 6.1-14.7 23 2 39.9-14.7 41-15.8 38.8-18 37.7-16.9 23-2.4 8.3-16.9Z" class="s2"/></g><g transform="matrix(0,-0.26458334,0.26458334,0,33.86253,258.63521)"><path d="M7.2-18 5-15.8 6.1-14.7 23 2 39.9-14.7 41-15.8 38.8-18 37.7-16.9 23-2.4 8.3-16.9Z" class="s2"/></g><g transform="matrix(-0.26458334,0,0,-0.26458334,50.531276,250.43313)"><path d="M7.2-18 5-15.8 6.1-14.7 23 2 39.9-14.7 41-15.8 38.8-18 37.7-16.9 23-2.4 8.3-16.9Z" class="s2"/></g><g transform="matrix(-0.26458334,0,0,0.26458334,63.231275,254.66646)"><path d="M7.2-18 5-15.8 6.1-14.7 23 2 39.9-14.7 41-15.8 38.8-18 37.7-16.9 23-2.4 8.3-16.9Z" class="s2"/></g><g transform="matrix(0.26458334,0,0,0.26458334,63.760442,254.66646)"><path d="M35.8-21 19.2-4.5 11.2-12.4 7-8.1 19.2 4 40-16.7Z" class="s2"/></g><g transform="matrix(0.26458334,0,0,0.26458334,76.460442,254.66646)"><path transform="translate(-1,-32)" d="m24 9c-1.1 0-2.1 0.7-2.9 2L6.7 34.1C5.9 35.5 5.8 36.6 6.4 37.6 6.9 38.5 8 39 9.6 39h28.8c1.6 0 2.7-0.5 3.2-1.4 0.6-0.9 0.5-2.1-0.3-3.5L26.9 11C26.1 9.7 25.1 9 24 9Zm0 6c1.6 0 3.1 0.9 3 2.7l-0.9 8.6C26 27.2 25.3 28.1 24 28 23 27.9 22 27.5 21.9 26.3L21 17.7C20.9 16.2 22.1 14.9 24 15ZM24 30c1.7 0 3 1.3 3 3 0 1.7-1.3 3-3 3-1.7 0-3-1.3-3-3 0-1.7 1.3-3 3-3z" class="white"/></g><g transform="matrix(0.26458334,0,0,0.26458334,89.164579,254.66646)"><path d="m18.8-18c1.1 0 2.3 0.8 2.7 1l8.7 5.1C31.6-11.1 33-9.9 33-8c0 1.9-1.4 3.1-2.8 3.9L21.5 1C21.1 1.2 19.9 2 18.8 2 17.4 2 16 0.5 16-1.3V-14.7C16-16.5 17.4-18 18.8-18Z" class="blue"/></g><g transform="matrix(0.26458334,0,0,0.26458334,114.56458,254.66666)"><rect width="48" height="48" x="-1" y="-32" class="s1"/><path d="M41-8C41 1.9 32.9 10 23 10 13.1 10 5 1.9 5-8c0-9.9 8.1-18 18-18 9.9 0 18 8.1 18 18zm-3 0C38 0.3 31.3 7 23 7 14.7 7 8 0.3 8-8c0-8.3 6.7-15 15-15 8.3 0 15 6.7 15 15z" class="s2"/></g><g transform="matrix(0.26458334,0,0,0.26458334,101.86458,254.66646)"><path d="M41-8C41 1.9 32.9 10 23 10 13.1 10 5 1.9 5-8c0-9.9 8.1-18 18-18 9.9 0 18 8.1 18 18zm-3 0C38 0.3 31.3 7 23 7 14.7 7 8 0.3 8-8c0-8.3 6.7-15 15-15 8.3 0 15 6.7 15 15zM30.5-8c0 4.1-3.4 7.5-7.5 7.5-4.1 0-7.5-3.4-7.5-7.5 0-4.1 3.4-7.5 7.5-7.5 4.1 0 7.5 3.4 7.5 7.5z" class="s2"/></g><g transform="translate(1.0795833e-6,190.49988)"><path xmlns="http://www.w3.org/2000/svg" d="m15.9 70.8c-0.9 0-1.6 0.7-1.6 1.6v3.2c0 0.9 0.7 1.6 1.6 1.6h1.6l1.6 2.4 1.6-2.4h1.6c0.9 0 1.6-0.7 1.6-1.6v-3.2c0-0.9-0.7-1.6-1.6-1.6zm0.8 2.4a0.8 0.8 0 0 1 0.8 0.8 0.8 0.8 0 0 1-0.8 0.8 0.8 0.8 0 0 1-0.8-0.8 0.8 0.8 0 0 1 0.8-0.8zm2.4 0a0.8 0.8 0 0 1 0.8 0.8 0.8 0.8 0 0 1-0.8 0.8 0.8 0.8 0 0 1-0.8-0.8 0.8 0.8 0 0 1 0.8-0.8zm2.4 0a0.8 0.8 0 0 1 0.8 0.8 0.8 0.8 0 0 1-0.8 0.8 0.8 0.8 0 0 1-0.8-0.8 0.8 0.8 0 0 1 0.8-0.8z" class="s2"/></g><g transform="translate(1.5258786e-6,190.50001)"><path d="m31.8 70.8c-2.6 0-4.8 2.1-4.8 4.8v0.8h1.6v-0.8c0-1.8 1.4-3.2 3.2-3.2 1.8 0 3.2 1.4 3.2 3.2v0.8h-1.6l2.4 2.4 2.4-2.4h-1.6v-0.8c0-2.6-2.1-4.8-4.8-4.8zm0 3.2c-0.9 0-1.6 0.7-1.6 1.6 0 0.9 0.7 1.6 1.6 1.6 0.9 0 1.6-0.7 1.6-1.6 0-0.9-0.7-1.6-1.6-1.6z" class="s2"/></g><g transform="matrix(0.26458334,0,0,0.26458334,101.86458,241.96664)" fill="#6c6c6c"><path d="m5 2h7V9H5Zm0-9h7V0H5Zm0-9h7v7H5Zm12 11h24v3H17ZM5-25h7v7H5ZM17 4H41V7H17Zm0-18h24v3H17Zm0-9h24v3H17Z" class="s2"/></g><g transform="matrix(0.26458334,0,0,0.26458334,0.26458302,254.66666)"><path d="M18.8-18C17.4-18 16-16.5 16-14.7V-1.3C16 0.5 17.4 2 18.8 2 19.9 2 21.1 1.2 21.5 1l8.7-5.1C31.6-4.9 33-6.1 33-8c0-1.9-1.4-3.1-2.8-3.9L21.5-17c-0.4-0.2-1.6-1-2.7-1z" class="blue"/><path xmlns="http://www.w3.org/2000/svg" d="M41-8C41 1.9 32.9 10 23 10 13.1 10 5 1.9 5-8c0-9.9 8.1-18 18-18 9.9 0 18 8.1 18 18zm3 0C44 3.6 34.6 13 23 13 11.4 13 2 3.6 2-8c0-11.6 9.4-21 21-21 11.6 0 21 9.4 21 21z" class="blue"/></g></g></svg>