<svg xmlns:svg="http://www.w3.org/2000/svg" xmlns="http://www.w3.org/2000/svg" width="480" height="144" viewBox="0 0 127 38.1" version="1.1">

    <style>.yellow {fill:#f0ab00;}
        .orange {fill:#f2702a;}
        .red {fill:#d32030;}
        .lila {fill:#ab218e;}
        .patrol {fill:#52bacc;}
        .midblue {fill:#007cc0;}
        .darkblue {fill:#004990;}
        .s1{fill:#fff; opacity:0.5}
        .s2{fill:#fff;}
        .s3{fill:#6c6c6c;}
        .s4{fill:#009de0;}
        .s8{fill:#f0ab00;}.s9{fill:#52bacc;}
        .s10{fill:#61a656;}
    </style>

    <defs/>

    <g transform="translate(0,-258.9)"><path class="s1" d="m40.1 259.96c-0.96 0-1.74 0.79-1.74 1.76v7.06c0 0.97 0.78 1.76 1.74 1.76h8.69c0.96 0 1.74-0.79 1.74-1.76v-7.06c0-0.97-0.78-1.76-1.74-1.76zm-12.7 0c-0.96 0-1.74 0.79-1.74 1.76v7.06c0 0.97 0.78 1.76 1.74 1.76h8.69c0.96 0 1.74-0.79 1.74-1.76v-7.06c0-0.97-0.78-1.76-1.74-1.76zm-12.7 0c-0.96 0-1.74 0.79-1.74 1.76v7.06c0 0.97 0.78 1.76 1.74 1.76h8.69c0.96 0 1.74-0.79 1.74-1.76v-7.06c0-0.97-0.78-1.76-1.74-1.76zm-12.7 0c-0.96 0-1.74 0.79-1.74 1.76v7.06c0 0.97 0.78 1.76 1.74 1.76h8.69c0.96 0 1.74-0.79 1.74-1.76v-7.06c0-0.97-0.78-1.76-1.74-1.76zm49.86 0h10.58v10.58h-10.58zm24.08 0v10.58H63.76v-10.58zm19.31-0.79-6.09 3.04v6.09l6.09 3.04 6.09-3.04v-6.09zm30.69 0v12.17H115.36v-8.69l3.53-3.48zm-75.41 13.49v10.58H38.36v-10.58zm12.7 0v10.58H51.06v-10.58zm12.7 0v10.58H63.76V272.66ZM11.64 271.86V284.04H1.06v-8.69l3.53-3.48zm12.7 0V284.04H13.76v-8.69l3.53-3.48zm12.7 0V284.04H26.46v-8.69l3.53-3.48zm50.8 0V284.04H77.26v-8.69l3.53-3.48zm14.82 0.79v10.58h10.58v-10.58zm-2.12-0.79V284.04H89.96v-8.69l3.53-3.48zm26.19 0.79v10.58H114.56V272.66ZM87.84 271.34H77.26V259.16H87.84ZM107.95 259.16l-6.09 3.04v6.09l6.09 3.04 6.09-3.04v-6.09z"/></g><g class="s2" transform="translate(0,-258.9)"><path d="m99.75 272.66v10.58h-9v-7.64l3-2.95zm-12.44 0v3.97h0.53l0 4.23-0.53 0v2.38h-9.26v-7.64l3-2.95zm-12.17 0.79v9H64.56v-9zm-12.7 0v9H51.86v-9zm-25.93-0.79v3.97h0.53l-0.53 4.23v2.38h-9.26v-7.64l3-2.95zm-12.7 0v3.97h0.53l0 4.23-0.53 0v2.38h-9.26v-7.64l3-2.95zm-12.7 0v3.97h0.53l-0.53 4.23v2.38H1.85v-7.64l3-2.95zm63.76-6.09v2.12h-2.12v-2.12zm-3.97 0v2.12h-2.12v-2.12zM39.42 261.02v8.47h10.05v-8.47zm-12.7 0v8.47h10.05v-8.47zm-12.7 0v8.47h10.05v-8.47zm90.49 0.93v6.61h7.67v-6.61zm-17.46 8.6h-9v-10.58h9zm38.63 2.91v9h-10.05v-9zm-21.96 2.91v4.23h8.47v-4.23zm-53.98-2.91v9H39.16v-9zm75.67-13.49v3.97l0.53 2.12-0.53 2.12v2.38h-9.26v-7.64l3-2.95zm-33.6 1.72v6.61h7.41l-0.53-6.61zm-24.87 4.89v2.12h-2.12v-2.12zm-12.17-5.03h6.35v5.29h-6.35zM1.32 261.02v8.47H11.38v-8.47z"/></g><g transform="translate(0,-258.9)"><path class="s3" d="m2.38 260.49c-0.87 0-1.59 0.71-1.59 1.59v6.35c0 0.87 0.71 1.59 1.59 1.59h7.94c0.87 0 1.59-0.71 1.59-1.59v-6.35c0-0.87-0.71-1.59-1.59-1.59zm0 0.79h7.94c0.45 0 0.79 0.35 0.79 0.79v6.35c0 0.45-0.35 0.79-0.79 0.79H2.38c-0.45 0-0.79-0.35-0.79-0.79v-6.35c0-0.45 0.35-0.79 0.79-0.79z"/><path class="s4" d="m4.97 262.6c-0.38 0-0.74 0.39-0.74 0.87v3.55c0 0.48 0.36 0.87 0.74 0.87 0.29 0 0.6-0.2 0.72-0.26l2.3-1.35c0.37-0.21 0.74-0.54 0.74-1.03 0-0.49-0.37-0.81-0.74-1.03l-2.3-1.35c-0.11-0.07-0.43-0.26-0.72-0.26z"/><path class="s3" d="m40.48 260.49c-0.87 0-1.59 0.71-1.59 1.59v6.35c0 0.87 0.71 1.59 1.59 1.59h7.94c0.87 0 1.59-0.71 1.59-1.59v-6.35c0-0.87-0.71-1.59-1.59-1.59zm0 0.79h7.94c0.45 0 0.79 0.35 0.79 0.79v6.35c0 0.45-0.35 0.79-0.79 0.79h-7.94c-0.45 0-0.79-0.35-0.79-0.79v-6.35c0-0.45 0.35-0.79 0.79-0.79z"/><path class="s4" d="m42.86 265.09 1.51 0.23 0.23 1.51 0.96-1.19 1.42 0.55-0.55-1.42 1.19-0.96-1.51-0.23-0.23-1.51-0.96 1.19-1.42-0.55 0.55 1.42zm1.32 0.95-2.35 2.38-0.56-0.56 2.38-2.35z"/><path d="m15.08 260.49c-0.87 0-1.59 0.71-1.59 1.59v6.35c0 0.87 0.71 1.59 1.59 1.59h7.94c0.87 0 1.59-0.71 1.59-1.59v-6.35c0-0.87-0.71-1.59-1.59-1.59zm0 0.79h7.94c0.45 0 0.79 0.35 0.79 0.79v6.35c0 0.45-0.35 0.79-0.79 0.79h-7.94c-0.45 0-0.79-0.35-0.79-0.79v-6.35c0-0.45 0.35-0.79 0.79-0.79z" class="s3"/><path xmlns="http://www.w3.org/2000/svg" class="s4" d="m19.44 266.34 0.25-0.38 1.35 0.37-0.16 0.82c-0.2 0.52-0.77 0.56-1.15 0.38-0.51-0.27-0.5-0.78-0.3-1.19zm0.44-3.1c0.31-0.65 0.96-1.36 1.46-1.11 0.67 0.34 0.68 1.59 0.57 2.24-0.22 0.66-0.46 0.86-0.78 1.48l-1.36-0.37c-0.02-0.77-0.16-1.67 0.11-2.24zm-1.23 3.9-0.25-0.38-1.35 0.37 0.16 0.82c0.2 0.52 0.77 0.56 1.15 0.38 0.51-0.27 0.5-0.78 0.3-1.19zm-0.44-3.1c-0.31-0.65-0.96-1.36-1.46-1.11-0.67 0.34-0.68 1.59-0.57 2.24 0.22 0.66 0.46 0.86 0.78 1.48l1.36-0.37c0.02-0.77 0.16-1.67-0.11-2.24z"/><path d="m125.41 270.81h-9.52v-7.94l3.17-3.17h6.35v3.18h-0.79v-2.38h-5.56v2.38h-2.38v7.14h7.94v-0.79h0.79z" class="s3"/><path d="m117.47 263.66v4.76h8.73v-4.76zm4.29 0.47c0.4 0 0.71 0.17 0.93 0.5 0.22 0.33 0.33 0.79 0.33 1.39 0 0.43-0.05 0.79-0.14 1.06-0.09 0.28-0.23 0.49-0.41 0.64-0.18 0.15-0.4 0.23-0.67 0.23-0.27 0-0.5-0.07-0.68-0.2-0.18-0.13-0.32-0.34-0.43-0.63-0.11-0.29-0.17-0.65-0.17-1.08 0-0.6 0.11-1.07 0.33-1.41 0.22-0.34 0.52-0.5 0.92-0.5zm2.79 0c0.3 0 0.54 0.09 0.72 0.28 0.17 0.19 0.3 0.48 0.39 0.87l-0.66 0.22c-0.02-0.11-0.05-0.19-0.07-0.25-0.04-0.09-0.09-0.15-0.15-0.2-0.06-0.05-0.13-0.07-0.2-0.07-0.17 0-0.3 0.1-0.39 0.31-0.07 0.15-0.1 0.4-0.1 0.73 0 0.41 0.04 0.69 0.12 0.84 0.08 0.15 0.2 0.23 0.34 0.23 0.14 0 0.25-0.06 0.32-0.18 0.07-0.12 0.13-0.3 0.16-0.53l0.65 0.3c-0.04 0.28-0.11 0.51-0.21 0.7-0.09 0.19-0.21 0.33-0.35 0.43-0.14 0.1-0.32 0.14-0.53 0.14-0.26 0-0.48-0.06-0.64-0.17-0.17-0.12-0.31-0.32-0.43-0.62-0.12-0.29-0.18-0.67-0.18-1.13 0-0.61 0.11-1.08 0.32-1.41 0.21-0.33 0.51-0.49 0.9-0.49zm-6.55 0.06h1.11c0.22 0 0.39 0.05 0.53 0.14 0.13 0.09 0.25 0.22 0.33 0.39 0.09 0.17 0.15 0.37 0.19 0.59 0.04 0.23 0.06 0.46 0.06 0.72 0 0.39-0.03 0.7-0.09 0.92-0.06 0.22-0.14 0.4-0.24 0.55-0.1 0.15-0.22 0.24-0.34 0.29-0.16 0.07-0.31 0.1-0.44 0.1h-1.11zm3.76 0.8c-0.15 0-0.27 0.08-0.36 0.24-0.09 0.16-0.14 0.43-0.14 0.81 0 0.37 0.05 0.64 0.13 0.8 0.09 0.16 0.21 0.24 0.37 0.24 0.16 0 0.28-0.08 0.37-0.24 0.09-0.16 0.13-0.45 0.13-0.86 0-0.35-0.05-0.6-0.14-0.76-0.09-0.16-0.21-0.24-0.37-0.24zm-3.01 0.04v2.02h0.18c0.16 0 0.27-0.03 0.33-0.08 0.07-0.05 0.12-0.15 0.15-0.28 0.04-0.13 0.06-0.35 0.06-0.64 0-0.39-0.04-0.66-0.13-0.8-0.08-0.14-0.22-0.22-0.41-0.22z" class="darkblue"/><path d="M11.11 283.51H1.59v-7.94l3.17-3.17h6.35v3.18h-0.79v-2.38H4.76v2.38H2.38v7.14h7.94v-0.79h0.79z" class="s3"/><path xmlns="http://www.w3.org/2000/svg" class="orange" d="m3.18 276.36v4.76h8.73v-4.76zm0.53 0.53h1.36c0.3 0 0.52 0.1 0.67 0.3 0.15 0.2 0.22 0.48 0.22 0.84 0 0.37-0.08 0.67-0.24 0.88-0.16 0.21-0.41 0.32-0.74 0.32H4.53v1.37H3.7Zm2.68 0h1.36c0.3 0 0.52 0.1 0.67 0.3 0.15 0.2 0.22 0.48 0.22 0.84 0 0.37-0.08 0.67-0.24 0.88-0.16 0.21-0.41 0.32-0.74 0.32H7.21v1.37H6.39Zm2.5 0h2.49v0.91h-0.84v2.79H9.72v-2.79H8.88Zm-4.35 0.75v0.83h0.2c0.16 0 0.27-0.04 0.33-0.11 0.06-0.08 0.1-0.18 0.1-0.3 0-0.12-0.03-0.21-0.08-0.3-0.06-0.08-0.16-0.12-0.31-0.12zm2.68 0v0.83h0.2c0.16 0 0.27-0.04 0.33-0.11 0.06-0.08 0.1-0.18 0.1-0.3 0-0.12-0.03-0.21-0.08-0.3-0.06-0.08-0.16-0.12-0.31-0.12z"/><path d="M23.81 283.51H14.29v-7.94l3.17-3.17h6.35v3.18h-0.79v-2.38h-5.56v2.38h-2.38v7.14h7.94v-0.79h0.79z" class="s3"/><path d="m15.87 276.36v4.76h8.73v-4.76zm0.54 0.53h0.72v1.3h0.79v-1.3h0.72v3.7h-0.72v-1.5H17.13v1.5h-0.72zm2.55 0h2.19v0.91h-0.73v2.79h-0.72v-2.79H18.96Zm2.51 0h0.95l0.37 2.25 0.36-2.25h0.94v3.7h-0.59v-2.82l-0.46 2.82H22.51l-0.45-2.82v2.82h-0.59z" class="patrol"/><path d="m36.51 283.51h-9.52v-7.94l3.18-3.17h6.35v3.18h-0.79v-2.38h-5.56v2.38h-2.38v7.14h7.94v-0.79h0.79z" class="s3"/><path xmlns="http://www.w3.org/2000/svg" class="red" d="m28.58 276.36v4.76h8.73v-4.76zm0.53 0.53h1.38c0.3 0 0.52 0.1 0.67 0.3 0.15 0.2 0.22 0.48 0.22 0.84 0 0.37-0.08 0.67-0.24 0.88-0.16 0.21-0.41 0.32-0.74 0.32h-0.45v1.37h-0.83zm2.72 0h1.23c0.24 0 0.44 0.05 0.59 0.14 0.15 0.09 0.27 0.22 0.37 0.39 0.1 0.17 0.17 0.37 0.21 0.59 0.04 0.23 0.07 0.47 0.07 0.72 0 0.4-0.03 0.7-0.1 0.92-0.06 0.22-0.15 0.4-0.27 0.55-0.12 0.15-0.24 0.24-0.37 0.29-0.18 0.07-0.35 0.1-0.49 0.1H31.82Zm2.9 0h2.05v0.8h-1.22v0.65h1.04v0.75h-1.04v1.51h-0.83zm-4.79 0.75v0.83h0.2c0.16 0 0.27-0.04 0.34-0.11 0.06-0.08 0.1-0.18 0.1-0.3 0-0.12-0.03-0.21-0.08-0.3-0.06-0.08-0.16-0.12-0.32-0.12zm2.72 0.09v2.02h0.2c0.17 0 0.3-0.03 0.37-0.08 0.07-0.05 0.13-0.15 0.17-0.28 0.04-0.13 0.06-0.35 0.06-0.64 0-0.39-0.05-0.66-0.14-0.81-0.09-0.14-0.25-0.22-0.46-0.22z"/><path xmlns="http://www.w3.org/2000/svg" class="s3" d="M49.21 273.98H39.69v7.94h9.52zm0.79 8.73H38.89v-9.52h11.11z"/><path xmlns="http://www.w3.org/2000/svg" class="s10" d="m46.83 281.12h-5.56l2.91-5.56 1.3 2.78 0.69-1.19 1.46 2.65h-1.47z"/><circle xmlns="http://www.w3.org/2000/svg" class="yellow" cx="46.83" cy="275.57" r="0.79"/><path xmlns="http://www.w3.org/2000/svg" d="m95.25 259.69 5.56 2.78v5.56l-5.56 2.78-5.56-2.78v-5.56zm-2.65 2.12 2.23 5.93 0.88-1.46 1.9 1.88 1.34-1.33-1.9-1.88 1.5-0.9z" class="s4"/><path xmlns="http://www.w3.org/2000/svg" d="m107.95 259.69-5.56 2.78v5.56l5.56 2.78 5.56-2.78v-5.56zm-0.53 2.38h1.06v0.79h1.85l1.59 1.59-1.59 1.59h-1.85v2.38h-1.06v-2.38h-2.65v-3.17h2.65zm-1.85 1.59v1.59h4.5l0.86-0.79-0.86-0.79z" class="orange"/><path d="m27.78 260.49c-0.87 0-1.59 0.71-1.59 1.59v6.35c0 0.87 0.71 1.59 1.59 1.59h7.94c0.87 0 1.59-0.71 1.59-1.59v-6.35c0-0.87-0.71-1.59-1.59-1.59zm0 0.79h7.94c0.45 0 0.79 0.35 0.79 0.79v6.35c0 0.45-0.35 0.79-0.79 0.79h-7.94c-0.45 0-0.79-0.35-0.79-0.79v-6.35c0-0.45 0.35-0.79 0.79-0.79z" class="s3"/><path xmlns="http://www.w3.org/2000/svg" class="s4" d="m32.36 266.36h-1.46v-0.15q0-0.38 0.08-0.61 0.08-0.24 0.25-0.43 0.17-0.2 0.75-0.69 0.31-0.26 0.31-0.47 0-0.21-0.13-0.33-0.12-0.12-0.38-0.12-0.27 0-0.45 0.18-0.18 0.18-0.23 0.64l-1.49-0.19q0.08-0.84 0.59-1.34 0.52-0.51 1.59-0.51 0.84 0 1.35 0.36 0.7 0.48 0.7 1.28 0 0.33-0.18 0.64-0.18 0.31-0.74 0.75-0.39 0.31-0.49 0.5-0.1 0.19-0.1 0.49zm-1.51 0.39h1.56v1.4h-1.56z"/><path xmlns="http://www.w3.org/2000/svg" class="patrol" d="m53.98 260.49v9.53h7.94v-9.52zm1.59 1.59h4.76v1.59h-4.76zm0 2.65h4.76v1.59h-4.76z"/><rect xmlns="http://www.w3.org/2000/svg" class="patrol" width="1.06" height="9.52" x="52.39" y="260.49" rx="0" ry="0"/><path d="m64.29 260.49v9.53h3.18v-9.52zm3.97 0v9.53h3.18v-9.52zm3.97 0v9.53h3.18v-9.52zm-6.38 6.35c0.32 0 0.65 0.18 0.77 0.5 0.04 0.09 0.05 0.19 0.05 0.29 0.02 0.55-0.61 0.96-1.1 0.73-0.51-0.19-0.65-0.94-0.24-1.3 0.14-0.15 0.33-0.22 0.53-0.22zm3.97 0c0.32 0 0.65 0.18 0.77 0.5 0.04 0.09 0.05 0.19 0.05 0.29 0.02 0.55-0.61 0.96-1.1 0.73-0.51-0.19-0.65-0.94-0.24-1.3 0.14-0.15 0.33-0.22 0.53-0.22zm3.97 0c0.32 0 0.65 0.18 0.77 0.5 0.04 0.09 0.05 0.19 0.05 0.29 0.02 0.55-0.61 0.96-1.1 0.73-0.51-0.19-0.65-0.94-0.24-1.3 0.14-0.15 0.33-0.22 0.53-0.22z" class="darkblue"/><path d="m87.31 270.81h-9.52v-11.11h9.53zm-0.79-0.79v-9.52h-7.94v9.53z" class="s3"/><path d="m79.38 266.84h6.35v0.79h-6.35zm0-1.59h6.35v0.79h-6.35zm0-1.59h6.35v0.79h-6.35zm0-1.59h6.35v0.79h-6.35z" class="darkblue"/><path d="m75.41 273.19v9.53h-11.11v-9.53zm-0.79 0.79h-9.52v7.94h9.53z" class="s3"/><path d="m65.88 274.77v6.35h7.94v-6.35zm1.85 1.46h2.65c0.29 0 0.53 0.24 0.53 0.53v0.79c0.03-0.02 0.06-0.04 0.08-0.05l0.82-0.89c0.07-0.08 0.2-0.12 0.34-0.12 0.18 0 0.35 0.17 0.35 0.38v2.14c0 0.21-0.17 0.38-0.35 0.38-0.14 0-0.27-0.05-0.34-0.12l-0.82-0.89c-0.03-0.02-0.06-0.03-0.08-0.05v0.79c0 0.29-0.24 0.53-0.53 0.53h-2.65c-0.29 0-0.53-0.24-0.53-0.53v-2.38c0-0.29 0.24-0.53 0.53-0.53z" class="s10"/><path d="m62.71 273.19v9.53h-11.11v-9.53zm-0.79 0.79h-9.52v7.94h9.53z" class="s3"/><path xmlns="http://www.w3.org/2000/svg" class="midblue" d="m53.18 274.77v6.35h7.94v-6.35zm3.97 0.4v5.56l-1.59-1.59h-1.19v-2.38h1.19zm1.76 0.63 0.19 0.18c1.11 1.08 1.11 2.84 0 3.92l-0.19 0.18-0.37-0.38 0.19-0.18c0.9-0.88 0.9-2.28 0-3.16l-0.19-0.18zm-0.7 0.73 0.19 0.19c0.67 0.68 0.67 1.78 0 2.46l-0.19 0.19-0.38-0.37 0.19-0.19c0.47-0.47 0.47-1.24 0-1.71l-0.19-0.19z"/><path d="m126.21 273.19v9.53h-11.11v-9.53zm-0.79 0.79h-9.52v7.94h9.53z" class="s3"/>
    <rect xmlns="http://www.w3.org/2000/svg" width="7.94" height="1.59" x="116.68" y="274.77" class="patrol"/><rect y="277.16" x="116.68" height="3.97" width="3.97" class="patrol"/><rect width="3.18" height="3.97" x="121.44" y="277.16" class="patrol"/><path d="m87.31 283.51h-9.52v-7.94l3.18-3.17h6.35v3.18h-0.79v-2.38h-5.56v2.38h-2.38v7.14h7.94v-0.79h0.79z" class="s3"/><path d="m79.38 276.36v4.76h8.73v-4.76zm7.11 0.47c0.15 0 0.31 0.02 0.47 0.05 0.16 0.03 0.32 0.07 0.5 0.14v0.78c-0.15-0.09-0.3-0.16-0.44-0.21-0.14-0.05-0.28-0.07-0.41-0.07-0.17 0-0.29 0.03-0.38 0.09-0.08 0.06-0.12 0.16-0.12 0.29 0 0.1 0.03 0.18 0.08 0.23 0.06 0.05 0.15 0.1 0.3 0.14l0.3 0.08c0.31 0.08 0.52 0.21 0.65 0.37 0.13 0.17 0.19 0.41 0.19 0.72 0 0.41-0.09 0.71-0.27 0.91-0.18 0.2-0.45 0.3-0.82 0.3-0.17 0-0.35-0.02-0.52-0.07-0.18-0.04-0.35-0.11-0.53-0.2v-0.8c0.18 0.12 0.34 0.22 0.51 0.28 0.16 0.06 0.32 0.09 0.47 0.09 0.15 0 0.27-0.03 0.36-0.1 0.08-0.07 0.12-0.17 0.12-0.3 0-0.12-0.03-0.2-0.08-0.27-0.06-0.06-0.17-0.12-0.33-0.17l-0.27-0.08c-0.27-0.08-0.48-0.2-0.6-0.38-0.13-0.17-0.19-0.41-0.19-0.7 0-0.37 0.09-0.65 0.27-0.85 0.18-0.2 0.43-0.3 0.76-0.3zm-6.54 0.08h0.78l0.64 1.19 0.63-1.19h0.78l-0.97 1.8 1.01 1.88h-0.78l-0.68-1.26-0.67 1.26h-0.78l1.01-1.88zm3.14 0h0.77v2.97h1.35v0.72h-2.12z" class="s10"/><path d="m100.01 272.39v11.11h-9.53v-7.94l3.18-3.17zm-0.79 0.79h-5.56v2.38h-2.38v7.14h7.94z" class="s3"/><path d="m390 54v4h36v-4zm0 6v30h36v-30zm3.19 7h10.54v2.19l-6.33 8.62h6.52v3.2H393v-2.18l6.4-8.62h-6.21zm13.07 0h3.23v14h-3.23zm6.42 0h5.37c1.6 0 2.82 0.4 3.67 1.19 0.86 0.79 1.29 1.91 1.29 3.38 0 1.47-0.43 2.6-1.29 3.39-0.85 0.79-2.07 1.18-3.67 1.18h-2.13v4.86h-3.23zm3.23 2.95v3.11h1.79c1.37 0 1.96-0.86 1.96-1.49 0-0.63-0.36-1.62-1.96-1.62z" transform="matrix(0.26458333,0,0,0.26458333,0,258.89999)" fill="#f0ab00"/><path d="m106.72 272.92h2.38v2.38l-2.38 0.79z" fill="#6c6c6c"/><circle xmlns="http://www.w3.org/2000/svg" class="lila" cx="10.05" cy="294.35" r="2.65"/><path xmlns="http://www.w3.org/2000/svg" class="s2" d="m11.74 296.04c-0.22 0.22-1.03-0.92-1.32-0.8-0.29 0.12-0.06 1.5-0.36 1.5-0.31 0-0.08-1.38-0.36-1.5-0.29-0.12-1.1 1.02-1.32 0.8-0.22-0.22 0.92-1.03 0.8-1.32-0.12-0.29-1.5-0.06-1.5-0.36 0-0.31 1.38-0.08 1.5-0.36 0.12-0.29-1.02-1.1-0.8-1.32 0.22-0.22 1.03 0.92 1.32 0.8 0.29-0.12 0.06-1.5 0.36-1.5 0.31 0 0.08 1.38 0.36 1.5 0.29 0.12 1.1-1.02 1.32-0.8 0.22 0.22-0.92 1.03-0.8 1.32 0.12 0.29 1.5 0.06 1.5 0.36 0 0.31-1.38 0.08-1.5 0.36-0.12 0.29 1.02 1.1 0.8 1.32z"/></g></svg>