<svg xmlns:svg="http://www.w3.org/2000/svg" xmlns="http://www.w3.org/2000/svg" version="1.1" viewBox="0 0 38.1 12.7" height="48" width="144">
    <g>
        <path d="M 25.664583,1.0583334 V 11.641667 H 37.835415 V 1.0583334 Z m 1.852083,1.8520833 h 8.467 V 9.7895836 H 27.516666 Z M 12.964584,1.0583334 V 11.641667 H 25.135416 V 1.0583334 Z m 1.852083,1.8520833 h 8.467 V 9.7895836 H 14.816667 Z M 0.26458334,1.0583334 V 11.641667 H 12.435417 V 1.0583334 Z M 2.1166667,2.9104167 H 10.583334 V 9.7895836 H 2.1166667 Z"
              style="opacity:1;fill:#ffffff;fill-opacity:0.5;"/>
        <path d="m 31.749482,3.4401002 c -1.285853,0 -2.372683,0.6675728 -3.142443,1.3027628 -0.38488,0.31759 -0.692786,0.6330818 -0.907955,0.8733317 -0.0778,0.086865 -0.129364,0.1499613 -0.182418,0.2144572 v 1.0392132 c 0.05307,0.064516 0.104588,0.1280684 0.182418,0.214974 0.215169,0.2402496 0.523075,0.5531477 0.907955,0.8707478 0.76976,0.6352003 1.856588,1.30483 3.142443,1.30483 1.285305,0 2.372991,-0.666246 3.14296,-1.3006959 0.384985,-0.3172299 0.692468,-0.631865 0.907955,-0.872815 0.07763,-0.08681 0.129406,-0.1505508 0.182935,-0.2154907 V 5.8280682 C 35.929779,5.7636565 35.878095,5.7010103 35.800397,5.6141277 35.584911,5.3731878 35.277427,5.0580159 34.892442,4.7407961 34.122474,4.1063361 33.034788,3.4401002 31.749482,3.4401002 Z m -12.699999,0 c -1.285853,0 -2.372683,0.6675728 -3.142443,1.3027628 -0.38488,0.31759 -0.692786,0.6330818 -0.907955,0.8733317 -0.0778,0.086865 -0.129364,0.1499613 -0.182418,0.2144572 v 1.0392132 c 0.05307,0.064516 0.104588,0.1280684 0.182418,0.214974 0.215169,0.2402496 0.523075,0.5531477 0.907955,0.8707478 0.76976,0.6352003 1.856588,1.30483 3.142443,1.30483 1.285305,0 2.372991,-0.666246 3.14296,-1.3006959 0.384985,-0.3172299 0.692468,-0.631865 0.907955,-0.872815 0.07763,-0.08681 0.129406,-0.1505508 0.182935,-0.2154907 V 5.8280682 C 23.22978,5.7636565 23.178096,5.7010103 23.100398,5.6141277 22.884912,5.3731878 22.577428,5.0580159 22.192443,4.7407961 21.422475,4.1063361 20.334789,3.4401002 19.049483,3.4401002 Z m -12.6999996,0 c -1.2858533,0 -2.3726836,0.6675728 -3.1424439,1.3027628 -0.3848801,0.31759 -0.6927859,0.6330818 -0.907955,0.8733317 -0.0778,0.086865 -0.1293636,0.1499613 -0.1824178,0.2144572 v 1.0392132 c 0.053065,0.064516 0.1045881,0.1280684 0.1824178,0.214974 0.215169,0.2402496 0.5230749,0.5531477 0.907955,0.8707478 0.76976,0.6352003 1.856589,1.30483 3.1424439,1.30483 1.2853057,0 2.3729914,-0.666246 3.1429607,-1.3006959 0.3849849,-0.3172299 0.6924679,-0.631865 0.9079549,-0.872815 0.07763,-0.08681 0.129406,-0.1505508 0.182935,-0.2154907 V 5.8280682 C 10.529781,5.7636565 10.478097,5.7010103 10.400399,5.6141277 10.184913,5.3731878 9.8774284,5.0580159 9.4924441,4.7407961 8.7224756,4.1063361 7.6347899,3.4401002 6.3494834,3.4401002 Z"
              style="color:#000000;fill:#ffffff;fill-opacity:0.5;"/>
    </g>
    <g transform="translate(0,-284.3)">
        <path d="m 7.8052085,290.64999 a 1.4552084,1.4552085 0 0 1 -1.4552084,1.45522 1.4552084,1.4552085 0 0 1 -1.4552083,-1.45522 1.4552084,1.4552085 0 0 1 1.4552083,-1.45518 1.4552084,1.4552085 0 0 1 1.4552084,1.45518 z m -1.4552084,-2.38124 c -2.1918802,0 -3.9687501,2.35994 -3.9687501,2.38124 0,0.0213 1.7768699,2.38126 3.9687501,2.38126 2.1918802,0 3.9687499,-2.35313 3.9687499,-2.38126 0,-0.0281 -1.7768697,-2.38124 -3.9687499,-2.38124 z m 0,0.52918 c 1.7535039,0 3.4395834,1.8248 3.4395834,1.85206 0,0.0273 -1.6860795,1.85211 -3.4395834,1.85211 -1.753504,0 -3.4395835,-1.82505 -3.4395835,-1.85211 0,-0.027 1.6860795,-1.85206 3.4395835,-1.85206 z M 11.90625,285.8875 v 9.52501 H 0.79375003 v -9.52501 z m -0.79375,0.79376 h -9.525 v 7.9375 h 9.525 z"
              style="opacity:1;fill:#000000;fill-opacity:0.6;"/>
        <path d="M 20.505208,290.64999 A 1.4552084,1.4552085 0 0 1 19.05,292.10521 1.4552084,1.4552085 0 0 1 17.594792,290.64999 1.4552084,1.4552085 0 0 1 19.05,289.19481 a 1.4552084,1.4552085 0 0 1 1.455208,1.45518 z M 19.05,288.26875 c -2.19188,0 -3.96875,2.35994 -3.96875,2.38124 0,0.0213 1.77687,2.38126 3.96875,2.38126 2.19188,0 3.968749,-2.35313 3.968749,-2.38126 0,-0.0281 -1.776869,-2.38124 -3.968749,-2.38124 z m 0,0.52918 c 1.753503,0 3.439583,1.8248 3.439583,1.85206 0,0.0273 -1.68608,1.85211 -3.439583,1.85211 -1.753504,0 -3.439583,-1.82505 -3.439583,-1.85211 0,-0.027 1.686079,-1.85206 3.439583,-1.85206 z m 5.556249,-2.91043 v 9.52501 H 13.493751 v -9.52501 z m -0.79375,0.79376 h -9.524998 v 7.9375 h 9.524998 z"
              style="opacity:1;fill:#000000;fill-opacity:0.5;"/>
        <path d="m 33.205207,290.64999 a 1.4552084,1.4552085 0 0 1 -1.455208,1.45522 1.4552084,1.4552085 0 0 1 -1.455208,-1.45522 1.4552084,1.4552085 0 0 1 1.455208,-1.45518 1.4552084,1.4552085 0 0 1 1.455208,1.45518 z m -1.455208,-2.38124 c -2.19188,0 -3.96875,2.35994 -3.96875,2.38124 0,0.0213 1.77687,2.38126 3.96875,2.38126 2.19188,0 3.968749,-2.35313 3.968749,-2.38126 0,-0.0281 -1.776869,-2.38124 -3.968749,-2.38124 z m 0,0.52918 c 1.753503,0 3.439583,1.8248 3.439583,1.85206 0,0.0273 -1.68608,1.85211 -3.439583,1.85211 -1.753504,0 -3.439583,-1.82505 -3.439583,-1.85211 0,-0.027 1.686079,-1.85206 3.439583,-1.85206 z m 5.556249,-2.91043 v 9.52501 H 26.19375 v -9.52501 z m -0.79375,0.79376 H 26.9875 v 7.9375 h 9.524998 z"
              style="opacity:1;fill:#000000;fill-opacity:0.7;"/>
    </g>
</svg>