<svg xmlns:svg="http://www.w3.org/2000/svg" xmlns="http://www.w3.org/2000/svg" version="1.1"
     viewBox="0 0 38.1 12.7" height="48" width="144">
    <g style="display:inline" id="layer5">
        <path d="m 29.633332,1.8521069 h 7.408332 v 1.8520834 h -7.408332 z m 0,2.3812501 h 7.408332 v 1.8520833 h -7.408332 z m 0,2.3812499 h 7.408332 v 1.8520833 h -7.408332 z m 0,2.3812503 h 7.408332 V 10.847941 H 29.633332 Z M 26.458333,1.3229407 h 2.910416 V 11.377108 h -2.910416 z m -9.525,0.5291662 h 7.408332 v 1.8520834 h -7.408332 z m 0,2.3812501 h 7.408332 v 1.8520833 h -7.408332 z m 0,2.3812499 h 7.408332 v 1.8520833 h -7.408332 z m 0,2.3812503 h 7.408332 V 10.847941 H 16.933333 Z M 13.758334,1.3229407 H 16.66875 V 11.377108 H 13.758334 Z M 4.233,1.8521069 H 11.641666 V 3.7041903 H 4.233 Z m 0,2.3812501 H 11.641666 V 6.0854403 H 4.233 Z m 0,2.3812499 H 11.641666 V 8.4666902 H 4.233 Z m 0,2.3812503 H 11.641666 V 10.847941 H 4.233 Z M 1.0583334,1.3229407 H 3.96875 V 11.377108 H 1.0583334 Z"
              style="fill:#fff;fill-opacity:0.5;" />
    </g>
    <g style="display:inline" transform="translate(0,-284.3)" id="layer1">
        <path id="rect7438" style="fill:#000000;fill-opacity:0.6;"
              d="m 1.5875,293.29584 h 1.8520834 v 1.85208 H 1.5875 Z m 0,-2.38125 h 1.8520834 v 1.85208 H 1.5875 Z m 0,-2.38125 h 1.8520834 v 1.85208 H 1.5875 Z m 3.1750001,2.91041 H 11.1125 v 0.79375 H 4.7625001 Z M 1.5875,286.15209 h 1.8520834 v 1.85208 H 1.5875 Z M 4.7625001,293.825 H 11.1125 v 0.79375 H 4.7625001 Z m 0,-4.7625 H 11.1125 v 0.79375 H 4.7625001 Z m 0,-2.38125 H 11.1125 V 287.475 H 4.7625001 Z"/>
        <path d="m 14.287501,293.29584 h 1.852083 v 1.85208 h -1.852083 z m 0,-2.38125 h 1.852083 v 1.85208 h -1.852083 z m 0,-2.38125 h 1.852083 v 1.85208 h -1.852083 z m 3.175,2.91041 h 6.35 v 0.79375 h -6.35 z m -3.175,-5.29166 h 1.852083 v 1.85208 h -1.852083 z m 3.175,7.67291 h 6.35 v 0.79375 h -6.35 z m 0,-4.7625 h 6.35 v 0.79375 h -6.35 z m 0,-2.38125 h 6.35 v 0.79375 h -6.35 z"
              style="fill:#000000;fill-opacity:0.5;" />
        <path id="path8488" style="fill:#000000;fill-opacity:0.7;"
              d="m 26.9875,293.29584 h 1.852083 v 1.85208 H 26.9875 Z m 0,-2.38125 h 1.852083 v 1.85208 H 26.9875 Z m 0,-2.38125 h 1.852083 v 1.85208 H 26.9875 Z m 3.175,2.91041 h 6.35 v 0.79375 h -6.35 z m -3.175,-5.29166 h 1.852083 v 1.85208 H 26.9875 Z m 3.175,7.67291 h 6.35 v 0.79375 h -6.35 z m 0,-4.7625 h 6.35 v 0.79375 h -6.35 z m 0,-2.38125 h 6.35 v 0.79375 h -6.35 z"/>
    </g>
</svg>